<svg width="24" height="24" viewBox="0 0 24 24" fill="none" xmlns="http://www.w3.org/2000/svg">
    <path
        d="M20.775 10H18.7C18.2667 8.53333 17.4417 7.33333 16.225 6.4C15.0083 5.46667 13.6 5 12 5C10.05 5 8.39583 5.67917 7.0375 7.0375C5.67917 8.39583 5 10.05 5 12C5 13.2 5.27083 14.3 5.8125 15.3C6.35417 16.3 7.08333 17.1167 8 17.75V15H10V21H4V19H6.35C5.31667 18.1667 4.5 17.1458 3.9 15.9375C3.3 14.7292 3 13.4167 3 12C3 10.75 3.2375 9.57917 3.7125 8.4875C4.1875 7.39583 4.82917 6.44583 5.6375 5.6375C6.44583 4.82917 7.39583 4.1875 8.4875 3.7125C9.57917 3.2375 10.75 3 12 3C14.15 3 16.0375 3.6625 17.6625 4.9875C19.2875 6.3125 20.325 7.98333 20.775 10Z"
        fill="currentcolor" />

    <path
        d="M17.2813 13.3125H14.5625V12.4792H18.1146L17.2813 13.3125ZM15.6146 14.9792H13.3125V14.1459H16.4479L15.6146 14.9792ZM13.9479 16.6459H12.0625V15.8125H14.7812L13.9479 16.6459ZM17.5 18.1875L16.4687 17.1563L14.8542 18.7709L15.8854 19.8021L17.5 18.1875ZM17.4062 16.2188L18.4375 17.25L20.6146 15.0834L19.5833 14.0417L17.4062 16.2188ZM16.0104 15.7604L18.9063 18.6459L16.8125 20.7396C16.5625 20.9896 16.2552 21.1146 15.8906 21.1146C15.526 21.1146 15.2187 20.9896 14.9687 20.7396L14.5833 21.1146H12.5L13.9271 19.6979L13.9167 19.6875C13.6597 19.4306 13.5313 19.125 13.5313 18.7709C13.5313 18.4167 13.6597 18.1111 13.9167 17.8542L16.0104 15.7604ZM16.0104 15.7604L18.6562 13.1146C18.9214 12.8507 19.2307 12.7188 19.5843 12.7188C19.9378 12.7188 20.2465 12.8507 20.5104 13.1146L21.5417 14.1563C21.8056 14.4214 21.9375 14.7307 21.9375 15.0843C21.9375 15.4378 21.8056 15.7465 21.5417 16.0104L18.9063 18.6459L16.0104 15.7604Z"
        fill="currentcolor" />
</svg>